# xmcd
#
# Track frame offsets:
#	150
#	24429
#	40105
#	62469
#	86368
#	115047
#	134381
#	162627
#	182446
#	203700
#	239518
#	263186
#	283530
#
# Disc length: 4484 seconds
#
# Revision: 0
# Processed by: cddbd v1.5.1PL0 Copyright (c) Steve Scherf et al.
# Submitted via: audiograbber 1.83.01
#
DISCID=aa11820d
DTITLE=Ronnie Earl and the Broadcasters - Blues and Forgiveness
DYEAR=1994
DGENRE=Blues
TTITLE0=San-Ho-Zay
TTITLE1=Robert Nighthawk Stomp
TTITLE2=Thank You Mr. T-Bone
TTITLE3=Akos
TTITLE4=Contrition
TTITLE5=Moanin'
TTITLE6=Blues For The West Side
TTITLE7=The Stumble
TTITLE8=Szeren
TTITLE9=Blues For Henry
TTITLE10=Not Now Kovitch
TTITLE11=Backstroke
TTITLE12=Rego Park Blues
EXTD=
EXTT0=
EXTT1=
EXTT2=
EXTT3=
EXTT4=
EXTT5=
EXTT6=
EXTT7=
EXTT8=
EXTT9=
EXTT10=
EXTT11=
EXTT12=
PLAYORDER=
